<svg xmlns="http://www.w3.org/2000/svg" viewBox="0 0 480 480" width="480" height="480" role="img" aria-label="생활/주방 대표 이미지(실제 상품 사진 아님)">
<rect width="480" height="480" fill="#FBF3EE"/>
<circle cx="240" cy="214" r="138" fill="#F5E0D6"/>
<g transform="translate(240 214)" fill="none" stroke="#A35F3E" stroke-width="9" stroke-linejoin="round" stroke-linecap="round"><path d="M-66-14H66V44A26 26 0 0 1 40 70H-40A26 26 0 0 1-66 44Z"/><path d="M-80-14H80M-66 6H-86M66 6H86"/><path d="M-20-34H20"/><path d="M-26-72c-8 8 8 16 0 24M0-80c-8 8 8 16 0 24M26-72c-8 8 8 16 0 24"/></g>
<text x="240" y="420" text-anchor="middle" font-family="Pretendard, -apple-system, BlinkMacSystemFont, 'Apple SD Gothic Neo', 'Malgun Gothic', system-ui, sans-serif" font-size="22" letter-spacing="1" fill="#8A93A3">대표 이미지</text>
</svg>
